General
Complete name                  :Jab We Met 2007
Format                         : MPEG-4
Format profile                 : Base Media
Codec ID                       : isom
File size                      : 2.20 GiB
Duration                       : 2h 23mn
Overall bit rate mode          : Variable
Overall bit rate               : 2 192 Kbps
Encoded date                   : UTC 2010-07-23 15:07:26
Tagged date                    : UTC 2010-07-23 15:07:26

Video
ID                             : 1
Format                         : AVC
Format/Info                    : Advanced Video Codec
Format profile                 : High@L4.1
Format settings, CABAC         : Yes
Format settings, ReFrames      : 3 frames
Codec ID                       : avc1
Codec ID/Info                  : Advanced Video Coding
Duration                       : 2h 23mn
Source duration                : 28s 52ms
Bit rate mode                  : Variable
Bit rate                       : 1 868 Kbps
Maximum bit rate               : 40.0 Mbps
Width                          : 1 280 pixels
Height                         : 528 pixels
Display aspect ratio           : 2.40:1
Frame rate mode                : Constant
Frame rate                     : 24.000 fps
Color space                    : YUV
Chroma subsampling             : 4:2:0
Bit depth                      : 8 bits
Scan type                      : Progressive
Bits/(Pixel*Frame)             : 0.115
Stream size                    : 1.87 GiB (85%)
Source stream size             : 1.87 GiB



Audio
ID                             : 2
Format                         : AAC
Format/Info                    : Advanced Audio Codec
Format profile                 : LC
Codec ID                       : 40
Duration                       : 2h 23mn
Bit rate mode                  : Variable
Bit rate                       : 320 Kbps
Maximum bit rate               : 333 Kbps
Channel(s)                     : 6 channels
Channel positions              : Front: L C R, Side: L R, LFE
Sampling rate                  : 48.0 KHz
Compression mode               : Lossy
Stream size                    : 328 MiB (15%)
Title                          : Jab We Met BDRip xRG
Language                       : Hindi


Snaps
 
http://postimage.org/image/bu78x0wjv/ 
http://postimage.org/image/x54t1aeob/ 
http://postimage.org/image/wgvyicfyj/ 
http://postimage.org/image/y9yv6o157/ 
http://postimage.org/image/nbnlohcjv/ 
http://postimage.org/image/qjs31iytn/ 
http://postimage.org/image/60x6wgkwb/ 
http://postimage.org/image/vwlzcrt1n/ 
http://postimage.org/image/7u55hwcej/




Seeding time 2am to 8am IST